<?xml version="1.0" standalone="no"?>
<!DOCTYPE svg PUBLIC "-//W3C//DTD SVG 20010904//EN"
 "http://www.w3.org/TR/2001/REC-SVG-20010904/DTD/svg10.dtd">
<svg version="1.0" xmlns="http://www.w3.org/2000/svg"
 width="400.000000pt" height="100.000000pt" viewBox="0 0 400.000000 100.000000"
 preserveAspectRatio="xMidYMid meet">

<g transform="translate(0.000000,100.000000) scale(0.100000,-0.100000)"
fill="#000000" stroke="none">
<path d="M210 718 c-39 -11 -80 -44 -80 -65 0 -16 5 -16 31 -3 10 6 19 7 19 3
0 -4 -25 -61 -56 -126 -67 -143 -76 -185 -45 -216 30 -30 43 -23 56 30 7 24
22 68 35 96 24 58 31 61 139 66 52 2 54 3 37 20 -12 12 -33 17 -73 17 -40 0
-54 3 -50 13 3 6 13 32 22 57 29 73 29 73 122 68 91 -5 102 4 42 34 -38 20
-140 23 -199 6z"/>
<path d="M747 606 c-18 -18 -44 -37 -59 -40 -29 -7 -39 -36 -13 -36 19 0 19 1
-6 -56 -27 -64 -29 -117 -5 -143 30 -34 43 -26 50 32 4 28 19 77 34 107 24 48
31 56 62 60 40 6 55 36 20 42 l-22 3 21 27 c28 35 27 38 -15 38 -27 0 -42 -8
-67 -34z"/>
<path d="M414 563 c-4 -16 -21 -57 -39 -93 -43 -84 -48 -105 -35 -130 19 -36
68 -23 128 33 l32 31 0 -32 c0 -19 8 -40 20 -52 23 -23 40 -19 40 11 0 11 16
58 35 104 28 68 33 90 25 110 -5 14 -15 25 -22 25 -7 -1 -33 -32 -56 -71 -66
-104 -161 -167 -103 -67 33 58 42 96 29 122 -22 43 -45 46 -54 9z"/>
<path d="M870 574 c0 -8 -18 -55 -41 -104 -22 -48 -39 -98 -37 -110 7 -53 64
-51 124 5 20 19 38 35 40 35 2 0 4 -15 4 -34 0 -25 7 -40 23 -51 21 -15 22
-15 30 17 5 18 22 65 38 103 32 76 36 104 17 123 -20 20 -32 13 -53 -30 -24
-49 -111 -148 -131 -148 -19 0 -18 2 16 67 34 64 38 103 12 126 -23 21 -42 22
-42 1z"/>
<path d="M1117 477 c-51 -111 -55 -128 -31 -151 23 -23 28 -21 52 29 25 52 95
131 123 140 11 4 26 1 34 -5 23 -19 47 6 43 44 -5 47 -45 48 -92 1 l-36 -36 0
30 c0 25 -22 52 -42 51 -2 0 -24 -46 -51 -103z"/>
<path d="M1454 556 c-49 -22 -115 -87 -136 -134 -37 -83 1 -124 94 -102 61 15
98 44 98 77 l0 25 -40 -36 c-45 -41 -80 -48 -80 -15 0 38 19 57 74 73 53 16
106 61 106 90 0 36 -59 47 -116 22z m74 -33 c-4 -21 -73 -61 -85 -49 -10 10
52 66 73 66 9 0 14 -7 12 -17z"/>
</g>
</svg>
